<svg width="27" height="30" viewBox="0 0 27 30" fill="none" xmlns="http://www.w3.org/2000/svg">
<path d="M7.32876 9.00001H17.8083L17.5425 12H10.3874C9.98953 12 9.608 12.1581 9.32669 12.4394C9.04539 12.7207 8.88735 13.1022 8.88735 13.5C8.88735 13.8978 9.04539 14.2794 9.32669 14.5607C9.608 14.842 9.98953 15 10.3874 15H17.2766L16.881 19.4649L13.3874 20.2573L9.89517 19.4634L9.75161 17.8667C9.7341 17.6705 9.67812 17.4796 9.58686 17.3051C9.4956 17.1305 9.37084 16.9756 9.21972 16.8492C9.0686 16.7229 8.89407 16.6275 8.70609 16.5686C8.51812 16.5097 8.32038 16.4884 8.12416 16.5059C7.92795 16.5234 7.73711 16.5793 7.56253 16.6706C7.38795 16.7619 7.23306 16.8866 7.10669 17.0377C6.98033 17.1889 6.88497 17.3634 6.82605 17.5514C6.76714 17.7393 6.74583 17.9371 6.76333 18.1333L7.00356 20.8183C7.03193 21.1343 7.1596 21.4331 7.36828 21.6721C7.57695 21.911 7.85592 22.0777 8.16519 22.1484L13.0548 23.2587C13.2738 23.3076 13.5009 23.3076 13.7199 23.2587L18.611 22.1484C18.9205 22.0777 19.1996 21.9107 19.4083 21.6715C19.617 21.4323 19.7446 21.1331 19.7726 20.8168L20.42 13.515L20.423 13.5L20.4218 13.4941L20.9415 7.63179C20.9596 7.42455 20.9344 7.21582 20.8675 7.01883C20.8007 6.82185 20.6936 6.64091 20.5531 6.48748C20.4126 6.33405 20.2418 6.21149 20.0515 6.12757C19.8611 6.04364 19.6554 6.00018 19.4474 5.99995H7.32876C6.93093 5.99995 6.5494 6.15798 6.2681 6.43929C5.98679 6.72059 5.82876 7.10213 5.82876 7.49995C5.82876 7.89778 5.98679 8.27931 6.2681 8.56061C6.5494 8.84192 6.93093 8.99995 7.32876 8.99995V9.00001ZM26.382 0.487786C26.2413 0.334175 26.0702 0.211491 25.8796 0.12752C25.6889 0.0435487 25.4829 0.000123324 25.2746 1.59703e-07H1.50014C1.29189 -9.59514e-05 1.0859 0.0431895 0.895296 0.127098C0.704695 0.211007 0.533662 0.333698 0.393096 0.487356C0.25253 0.641013 0.145513 0.822266 0.0788643 1.01957C0.0122153 1.21687 -0.0126042 1.42589 0.00598716 1.63331L2.17103 25.9248C2.19803 26.2284 2.31696 26.5165 2.51194 26.7508C2.70693 26.985 2.9687 27.1542 3.26234 27.2358L12.9713 29.9443C13.2348 30.0186 13.5136 30.0186 13.777 29.9443L23.5124 27.2256C23.806 27.144 24.0678 26.9747 24.2628 26.7405C24.4578 26.5063 24.5767 26.2181 24.6037 25.9146L26.7687 1.63329C26.7871 1.42598 26.7622 1.21711 26.6957 1.01993C26.6291 0.822736 26.5223 0.641527 26.382 0.487786V0.487786ZM21.7077 24.6153L13.3742 26.943L5.06704 24.6255L3.1393 3H23.6354L21.7077 24.6153Z" fill="#FFFFFF"/>
</svg>
