<svg width="158" height="158" viewBox="0 0 158 158" fill="none" xmlns="http://www.w3.org/2000/svg">
<g filter="url(#filter0_d_323_1706)">
<path d="M4 10C4 4.47715 8.47715 0 14 0H144C149.523 0 154 4.47715 154 10V140C154 145.523 149.523 150 144 150H14C8.47715 150 4 145.523 4 140V10Z" fill="white" fill-opacity="0.5" shape-rendering="crispEdges"/>
<mask id="mask0_323_1706" style="mask-type:alpha" maskUnits="userSpaceOnUse" x="4" y="0" width="150" height="150">
<rect x="4" width="150" height="150" rx="10" fill="#C4C4C4"/>
</mask>
<g mask="url(#mask0_323_1706)">
<path d="M95.9303 69.1107L100.082 145.854L88.7656 151.507L85.4987 75.7971L49.0885 93.9846L44.3204 84.4393L91.7521 60.7462L95.9303 69.1107ZM152.274 42.1955L119.308 58.6627L129.09 78.2454C129.55 75.7204 130.814 73.1628 132.881 70.5727C135.014 67.9499 137.622 65.8684 140.705 64.3282C146.216 61.5754 151.267 60.5279 155.858 61.1856C160.515 61.8105 164.466 63.5666 167.712 66.4539C171.023 69.3084 173.678 72.7365 175.677 76.7384C178.102 81.5931 179.314 86.3981 179.312 91.1535C179.343 95.8105 178.029 100.155 175.371 104.188C172.779 108.188 168.793 111.532 163.413 114.219C156.263 117.791 149.637 118.887 143.538 117.507C137.438 116.128 132.504 112.731 128.735 107.319L139.658 101.862C141.92 104.585 144.756 106.243 148.166 106.834C151.544 107.36 155.103 106.689 158.842 104.821C163.5 102.495 166.272 99.3474 167.159 95.3794C168.112 91.3787 167.425 87.0494 165.098 82.3916C162.739 77.6681 159.755 74.6497 156.148 73.3365C152.509 71.9577 148.393 72.4152 143.8 74.7092C140.586 76.3149 138.273 78.4949 136.862 81.2492C135.483 83.9052 134.99 86.8566 135.382 90.1035L124.755 95.4123L104.06 53.9834L147.359 32.3549L152.274 42.1955Z" fill="black"/>
</g>
<path d="M22.3288 23H32.8083L32.5425 26H25.3874C24.9895 26 24.608 26.1581 24.3267 26.4394C24.0454 26.7207 23.8873 27.1022 23.8873 27.5C23.8873 27.8978 24.0454 28.2794 24.3267 28.5607C24.608 28.842 24.9895 29 25.3874 29H32.2766L31.881 33.4649L28.3874 34.2573L24.8952 33.4634L24.7516 31.8667C24.7341 31.6705 24.6781 31.4796 24.5869 31.3051C24.4956 31.1305 24.3708 30.9756 24.2197 30.8492C24.0686 30.7229 23.8941 30.6275 23.7061 30.5686C23.5181 30.5097 23.3204 30.4884 23.1242 30.5059C22.928 30.5234 22.7371 30.5793 22.5625 30.6706C22.388 30.7619 22.2331 30.8866 22.1067 31.0377C21.9803 31.1889 21.885 31.3634 21.8261 31.5514C21.7671 31.7393 21.7458 31.9371 21.7633 32.1333L22.0036 34.8183C22.0319 35.1343 22.1596 35.4331 22.3683 35.6721C22.577 35.911 22.8559 36.0777 23.1652 36.1484L28.0548 37.2587C28.2738 37.3076 28.5009 37.3076 28.7199 37.2587L33.611 36.1484C33.9205 36.0777 34.1996 35.9107 34.4083 35.6715C34.617 35.4323 34.7446 35.1331 34.7726 34.8168L35.42 27.515L35.423 27.5L35.4218 27.4941L35.9415 21.6318C35.9596 21.4245 35.9344 21.2158 35.8675 21.0188C35.8007 20.8218 35.6936 20.6409 35.5531 20.4875C35.4126 20.3341 35.2418 20.2115 35.0515 20.1276C34.8611 20.0436 34.6554 20.0002 34.4474 19.9999H22.3288C21.9309 19.9999 21.5494 20.158 21.2681 20.4393C20.9868 20.7206 20.8288 21.1021 20.8288 21.5C20.8288 21.8978 20.9868 22.2793 21.2681 22.5606C21.5494 22.8419 21.9309 23 22.3288 23V23ZM41.382 14.4878C41.2413 14.3342 41.0702 14.2115 40.8796 14.1275C40.6889 14.0435 40.4829 14.0001 40.2746 14H16.5001C16.2919 13.9999 16.0859 14.0432 15.8953 14.1271C15.7047 14.211 15.5337 14.3337 15.3931 14.4874C15.2525 14.641 15.1455 14.8223 15.0789 15.0196C15.0122 15.2169 14.9874 15.4259 15.006 15.6333L17.171 39.9248C17.198 40.2284 17.317 40.5165 17.5119 40.7508C17.7069 40.985 17.9687 41.1542 18.2623 41.2358L27.9713 43.9443C28.2348 44.0186 28.5136 44.0186 28.777 43.9443L38.5124 41.2256C38.806 41.144 39.0678 40.9747 39.2628 40.7405C39.4578 40.5063 39.5767 40.2181 39.6037 39.9146L41.7687 15.6333C41.7871 15.426 41.7622 15.2171 41.6957 15.0199C41.6291 14.8227 41.5223 14.6415 41.382 14.4878V14.4878ZM36.7077 38.6153L28.3742 40.943L20.067 38.6255L18.1393 17H38.6354L36.7077 38.6153Z" fill="#383838"/>
<path d="M50.6893 133.259C50.0164 131.855 49.8949 130.565 50.325 129.389C50.7651 128.184 51.6297 127.273 52.9187 126.656C54.2077 126.038 55.4498 125.94 56.645 126.36C57.8502 126.753 58.7893 127.651 59.4622 129.056C60.1352 130.46 60.2516 131.765 59.8115 132.969C59.3906 134.164 58.5357 135.071 57.2467 135.688C55.9577 136.306 54.706 136.409 53.4915 135.997C52.2963 135.576 51.3623 134.664 50.6893 133.259ZM66.3155 120.698L64.4251 146.3L61.1929 147.849L63.0834 122.246L66.3155 120.698ZM53.8728 128.647C52.6607 129.228 52.4557 130.355 53.2577 132.029C54.0689 133.722 55.0805 134.278 56.2926 133.697C56.8698 133.42 57.2155 133.006 57.3297 132.455C57.4539 131.875 57.3087 131.152 56.8938 130.286C56.0918 128.613 55.0848 128.066 53.8728 128.647ZM68.0901 139.434C67.4172 138.03 67.2957 136.74 67.7258 135.564C68.1659 134.359 69.0304 133.448 70.3194 132.831C71.5892 132.222 72.8217 132.129 74.0169 132.549C75.2221 132.942 76.1612 133.84 76.8341 135.245C77.5071 136.649 77.6235 137.954 77.1834 139.158C76.7626 140.353 75.9172 141.255 74.6475 141.863C73.3585 142.481 72.1068 142.584 70.8923 142.172C69.6971 141.752 68.763 140.839 68.0901 139.434ZM71.2447 134.836C70.0326 135.417 69.8276 136.544 70.6296 138.218C71.4316 139.891 72.4386 140.438 73.6507 139.857C74.8627 139.276 75.0678 138.149 74.2658 136.475C73.4638 134.802 72.4567 134.255 71.2447 134.836Z" fill="black"/>
</g>
<defs>
<filter id="filter0_d_323_1706" x="0" y="0" width="158" height="158" filterUnits="userSpaceOnUse" color-interpolation-filters="sRGB">
<feFlood flood-opacity="0" result="BackgroundImageFix"/>
<feColorMatrix in="SourceAlpha" type="matrix" values="0 0 0 0 0 0 0 0 0 0 0 0 0 0 0 0 0 0 127 0" result="hardAlpha"/>
<feOffset dy="4"/>
<feGaussianBlur stdDeviation="2"/>
<feComposite in2="hardAlpha" operator="out"/>
<feColorMatrix type="matrix" values="0 0 0 0 0 0 0 0 0 0 0 0 0 0 0 0 0 0 0.25 0"/>
<feBlend mode="normal" in2="BackgroundImageFix" result="effect1_dropShadow_323_1706"/>
<feBlend mode="normal" in="SourceGraphic" in2="effect1_dropShadow_323_1706" result="shape"/>
</filter>
</defs>
</svg>
