<svg width="158" height="158" viewBox="0 0 158 158" fill="none" xmlns="http://www.w3.org/2000/svg">
<g filter="url(#filter0_d_323_1690)">
<path d="M4 10C4 4.47715 8.47715 0 14 0H144C149.523 0 154 4.47715 154 10V140C154 145.523 149.523 150 144 150H14C8.47715 150 4 145.523 4 140V10Z" fill="white" fill-opacity="0.5" shape-rendering="crispEdges"/>
<mask id="mask0_323_1690" style="mask-type:alpha" maskUnits="userSpaceOnUse" x="4" y="0" width="150" height="150">
<rect x="4" width="150" height="150" rx="10" fill="#C4C4C4"/>
</mask>
<g mask="url(#mask0_323_1690)">
<path d="M95.9303 69.1107L100.082 145.854L88.7656 151.507L85.4987 75.7971L49.0885 93.9846L44.3204 84.4393L91.7521 60.7462L95.9303 69.1107ZM152.274 42.1955L119.308 58.6627L129.09 78.2454C129.55 75.7204 130.814 73.1628 132.881 70.5727C135.014 67.9499 137.622 65.8684 140.705 64.3282C146.216 61.5754 151.267 60.5279 155.858 61.1856C160.515 61.8105 164.466 63.5666 167.712 66.4539C171.023 69.3084 173.678 72.7365 175.677 76.7384C178.102 81.5931 179.314 86.3981 179.312 91.1535C179.343 95.8105 178.029 100.155 175.371 104.188C172.779 108.188 168.793 111.532 163.413 114.219C156.263 117.791 149.637 118.887 143.538 117.507C137.438 116.128 132.504 112.731 128.735 107.319L139.658 101.862C141.92 104.585 144.756 106.243 148.166 106.834C151.544 107.36 155.103 106.689 158.842 104.821C163.5 102.495 166.272 99.3474 167.159 95.3794C168.112 91.3787 167.425 87.0494 165.098 82.3916C162.739 77.6681 159.755 74.6497 156.148 73.3365C152.509 71.9577 148.393 72.4152 143.8 74.7092C140.586 76.3149 138.273 78.4949 136.862 81.2492C135.483 83.9052 134.99 86.8566 135.382 90.1035L124.755 95.4123L104.06 53.9834L147.359 32.3549L152.274 42.1955Z" fill="url(#paint0_linear_323_1690)"/>
</g>
<path d="M41.4254 14.4646C41.2916 14.3182 41.1288 14.2013 40.9473 14.1214C40.7659 14.0414 40.5697 14.0001 40.3714 14H15.4286C15.2303 14.0001 15.0342 14.0414 14.8528 14.1214C14.6713 14.2014 14.5085 14.3182 14.3747 14.4645C14.2408 14.6108 14.1389 14.7834 14.0754 14.9712C14.0118 15.159 13.9881 15.358 14.0056 15.5555L16.177 39.8412C16.2028 40.1306 16.3162 40.4053 16.5022 40.6285C16.6881 40.8517 16.9378 41.0129 17.2178 41.0905L27.5038 43.9477C27.6282 43.9824 27.7568 44 27.8861 44C28.015 43.9999 28.1433 43.9825 28.2676 43.9484L38.5815 41.0912C38.8616 41.0135 39.1114 40.8522 39.2974 40.6289C39.4835 40.4055 39.5971 40.1308 39.6229 39.8412L41.7944 15.5555C41.8119 15.358 41.7882 15.159 41.7247 14.9712C41.6612 14.7834 41.5592 14.6109 41.4254 14.4646V14.4646ZM36.8649 38.6017L27.8868 41.0891L18.9352 38.6024L16.9904 16.8571H38.8096L36.8649 38.6017ZM21.9283 29.7143H31.7783L31.311 34.3871L27.6426 35.6971L23.1232 34.083C22.9465 34.0196 22.7589 33.9917 22.5714 34.0009C22.3838 34.01 22.1999 34.056 22.0302 34.1363C21.8604 34.2166 21.7081 34.3296 21.5821 34.4687C21.456 34.6079 21.3586 34.7705 21.2954 34.9474C21.2323 35.1242 21.2046 35.3118 21.214 35.4993C21.2233 35.6869 21.2696 35.8707 21.3501 36.0404C21.4305 36.21 21.5437 36.3622 21.683 36.4881C21.8223 36.614 21.9851 36.7112 22.162 36.7741L27.162 38.5598C27.4729 38.6705 27.8124 38.6705 28.1232 38.5598L33.1232 36.7741C33.3778 36.6831 33.6014 36.5217 33.768 36.3088C33.9345 36.0958 34.0372 35.8399 34.0642 35.5709L34.7785 28.428C34.7982 28.2294 34.7762 28.0289 34.7137 27.8393C34.6513 27.6498 34.5498 27.4754 34.4159 27.3274C34.282 27.1795 34.1186 27.0612 33.9362 26.9802C33.7538 26.8992 33.5565 26.8573 33.3569 26.8571H23.2209L22.7926 22.5714H34.0712C34.45 22.5714 34.8134 22.4209 35.0813 22.153C35.3492 21.8851 35.4997 21.5217 35.4997 21.1429C35.4997 20.764 35.3492 20.4006 35.0813 20.1327C34.8134 19.8648 34.45 19.7143 34.0712 19.7143H21.214C21.0144 19.7144 20.8171 19.7563 20.6347 19.8373C20.4523 19.9183 20.2889 20.0366 20.155 20.1846C20.0211 20.3326 19.9196 20.5069 19.8572 20.6965C19.7948 20.886 19.7727 21.0866 19.7924 21.2852L20.5067 28.428C20.542 28.7805 20.7071 29.1073 20.9698 29.345C21.2324 29.5827 21.5741 29.7143 21.9283 29.7143Z" fill="#383838"/>
<path d="M50.6893 133.259C50.0164 131.855 49.8949 130.565 50.325 129.389C50.7651 128.184 51.6297 127.273 52.9187 126.656C54.2077 126.038 55.4498 125.94 56.645 126.36C57.8502 126.753 58.7893 127.651 59.4622 129.056C60.1352 130.46 60.2516 131.765 59.8115 132.969C59.3906 134.164 58.5357 135.071 57.2467 135.688C55.9577 136.306 54.706 136.409 53.4915 135.997C52.2963 135.576 51.3623 134.664 50.6893 133.259ZM66.3155 120.698L64.4251 146.3L61.1929 147.849L63.0834 122.246L66.3155 120.698ZM53.8728 128.647C52.6607 129.228 52.4557 130.355 53.2577 132.029C54.0689 133.722 55.0805 134.278 56.2926 133.697C56.8698 133.42 57.2155 133.006 57.3297 132.455C57.4539 131.875 57.3087 131.152 56.8938 130.286C56.0918 128.613 55.0848 128.066 53.8728 128.647ZM68.0901 139.434C67.4172 138.03 67.2957 136.74 67.7258 135.564C68.1659 134.359 69.0304 133.448 70.3194 132.831C71.5892 132.222 72.8217 132.129 74.0169 132.549C75.2221 132.942 76.1612 133.84 76.8341 135.245C77.5071 136.649 77.6235 137.954 77.1834 139.158C76.7626 140.353 75.9172 141.255 74.6475 141.863C73.3585 142.481 72.1068 142.584 70.8923 142.172C69.6971 141.752 68.763 140.839 68.0901 139.434ZM71.2447 134.836C70.0326 135.417 69.8276 136.544 70.6296 138.218C71.4316 139.891 72.4386 140.438 73.6507 139.857C74.8627 139.276 75.0678 138.149 74.2658 136.475C73.4638 134.802 72.4567 134.255 71.2447 134.836Z" fill="black"/>
</g>
<defs>
<filter id="filter0_d_323_1690" x="0" y="0" width="158" height="158" filterUnits="userSpaceOnUse" color-interpolation-filters="sRGB">
<feFlood flood-opacity="0" result="BackgroundImageFix"/>
<feColorMatrix in="SourceAlpha" type="matrix" values="0 0 0 0 0 0 0 0 0 0 0 0 0 0 0 0 0 0 127 0" result="hardAlpha"/>
<feOffset dy="4"/>
<feGaussianBlur stdDeviation="2"/>
<feComposite in2="hardAlpha" operator="out"/>
<feColorMatrix type="matrix" values="0 0 0 0 0 0 0 0 0 0 0 0 0 0 0 0 0 0 0.25 0"/>
<feBlend mode="normal" in2="BackgroundImageFix" result="effect1_dropShadow_323_1690"/>
<feBlend mode="normal" in="SourceGraphic" in2="effect1_dropShadow_323_1690" result="shape"/>
</filter>
<linearGradient id="paint0_linear_323_1690" x1="96.6734" y1="12.3009" x2="168.753" y2="156.599" gradientUnits="userSpaceOnUse">
<stop/>
<stop offset="0.661458" stop-color="#F16529"/>
</linearGradient>
</defs>
</svg>
