<svg width="30" height="30" viewBox="0 0 30 30" fill="none" xmlns="http://www.w3.org/2000/svg">
<path d="M0 0V30H30V0H0ZM16.3343 22.4913C16.3343 26.1802 14.5465 27.4099 11.8953 27.4099C11.2025 27.4089 10.514 27.3001 9.85465 27.0872L10.1512 25.1163C10.6338 25.2816 11.141 25.3642 11.6512 25.3605C13.0465 25.3605 13.8924 24.7326 13.8924 22.4128V13.8314H16.3343V22.4913ZM22.0203 27.3924C20.7644 27.3948 19.5263 27.0957 18.4099 26.5203L18.9506 24.4971C19.9363 25.053 21.0457 25.3529 22.1773 25.3692C23.7209 25.3779 24.593 24.6453 24.593 23.5552C24.593 22.4651 23.9302 21.9767 22.2384 21.3401C20.032 20.5552 18.6279 19.3692 18.6279 17.4593C18.6279 15.2703 20.4506 13.6221 23.3547 13.6221C24.4588 13.5885 25.5553 13.8155 26.5552 14.2849L25.9709 16.2471C25.1446 15.8269 24.2293 15.6115 23.3023 15.6192C21.75 15.6192 21.0959 16.439 21.0959 17.2238C21.0959 18.2529 21.8721 18.7326 23.6512 19.4128C25.9709 20.2849 27.0872 21.4622 27.0872 23.3808C27.0872 25.5349 25.4651 27.3924 22.0203 27.3924Z" fill="white"/>
</svg>
